<?xml version="1.0" encoding="UTF-8"?>
<svg version="1.1" xmlns="http://www.w3.org/2000/svg" width="451" height="80">
<path d="M0 0 C12.69068951 4.92362836 23.92453046 12.87347385 33 23 C33.72058594 23.78761719 34.44117187 24.57523438 35.18359375 25.38671875 C38.56865456 30.2568385 37.73796674 35.31197941 37 41 C34.83977102 50.88227448 31.08127031 60.36159017 26.9375 69.5625 C26.62167969 70.28276367 26.30585937 71.00302734 25.98046875 71.74511719 C24.54401022 74.77257128 23.51020361 76.70599824 20.56640625 78.40234375 C19.71949219 78.59957031 18.87257812 78.79679687 18 79 C16.9174292 79.26079346 16.9174292 79.26079346 15.81298828 79.52685547 C12.34182942 80.11070427 8.93463316 80.16228113 5.42578125 80.16796875 C4.7019072 80.17129715 3.97803314 80.17462555 3.23222351 80.17805481 C1.70340608 80.18310211 0.17457771 80.18546382 -1.35424805 80.18530273 C-3.66278878 80.18747673 -5.97084132 80.2056209 -8.27929688 80.22460938 C-28.64943819 80.31118891 -28.64943819 80.31118891 -33.33203125 75.70703125 C-40.79816637 61.10965362 -47.55174354 43.66607501 -45 27 C-43.22695349 23.60904855 -40.8895849 21.46369459 -38 19 C-37.3709375 18.35933594 -36.741875 17.71867187 -36.09375 17.05859375 C-29.40242052 10.48307575 -21.23170532 6.32645916 -13 2 C-12.26136719 1.59652344 -11.52273437 1.19304687 -10.76171875 0.77734375 C-7.14678638 -0.8177151 -3.7816462 -0.69294369 0 0 Z " fill="#1C844A" transform="translate(45,0)"/>
<path d="M0 0 C12.69068951 4.92362836 23.92453046 12.87347385 33 23 C33.72058594 23.78761719 34.44117187 24.57523438 35.18359375 25.38671875 C38.56865456 30.2568385 37.73796674 35.31197941 37 41 C34.83977102 50.88227448 31.08127031 60.36159017 26.9375 69.5625 C26.62167969 70.28276367 26.30585937 71.00302734 25.98046875 71.74511719 C24.54401022 74.77257128 23.51020361 76.70599824 20.56640625 78.40234375 C19.71949219 78.59957031 18.87257812 78.79679687 18 79 C16.9174292 79.26079346 16.9174292 79.26079346 15.81298828 79.52685547 C12.34182942 80.11070427 8.93463316 80.16228113 5.42578125 80.16796875 C4.7019072 80.17129715 3.97803314 80.17462555 3.23222351 80.17805481 C1.70340608 80.18310211 0.17457771 80.18546382 -1.35424805 80.18530273 C-3.66278878 80.18747673 -5.97084132 80.2056209 -8.27929688 80.22460938 C-28.64943819 80.31118891 -28.64943819 80.31118891 -33.33203125 75.70703125 C-40.79816637 61.10965362 -47.55174354 43.66607501 -45 27 C-43.22695349 23.60904855 -40.8895849 21.46369459 -38 19 C-37.3709375 18.35933594 -36.741875 17.71867187 -36.09375 17.05859375 C-29.40242052 10.48307575 -21.23170532 6.32645916 -13 2 C-12.26136719 1.59652344 -11.52273437 1.19304687 -10.76171875 0.77734375 C-7.14678638 -0.8177151 -3.7816462 -0.69294369 0 0 Z M-34 20 C-34.8559375 20.68191406 -35.711875 21.36382813 -36.59375 22.06640625 C-39.36895959 24.48494277 -41.55367747 26.50103 -42.62109375 30.0859375 C-42.7769155 32.85295405 -42.45868335 35.26179941 -42 38 C-41.90138672 38.64259766 -41.80277344 39.28519531 -41.70117188 39.94726562 C-39.63656893 52.8185903 -35.24792904 64.12810644 -28 75 C-17.61711195 78.27880675 -6.8099676 78.49761849 4 78 C4.66467285 77.9705127 5.3293457 77.94102539 6.01416016 77.91064453 C12.10307009 77.52962436 17.13969318 76.8774525 21.54296875 72.43359375 C28.29737011 62.10556916 32.38698479 49.17093292 34 37 C34.13019531 36.22011719 34.26039062 35.44023438 34.39453125 34.63671875 C34.73496682 31.20351263 34.76687295 28.98475885 32.59765625 26.19921875 C30.48761848 24.32219129 28.27421533 22.67402496 26 21 C24.29093826 19.52167501 22.58264612 18.04245997 20.875 16.5625 C8.81267354 6.78905776 8.81267354 6.78905776 -5.67578125 2.515625 C-16.31267878 4.7323902 -25.82953534 13.19486298 -34 20 Z " fill="#1E7B3B" transform="translate(45,0)"/>
<path d="M0 0 C0.680625 0.7425 0.680625 0.7425 1.375 1.5 C2.87635519 3.22609337 2.87635519 3.22609337 5 3 C5 4.32 5 5.64 5 7 C5.66 7 6.32 7 7 7 C8.04044536 12.2022268 7.67942414 15.05769468 6 20 C5.57502095 22.45018787 5.20061368 24.90963927 4.875 27.375 C4.70742188 28.62023437 4.53984375 29.86546875 4.3671875 31.1484375 C4.24601562 32.08945312 4.12484375 33.03046875 4 34 C5.15435547 32.77990234 5.15435547 32.77990234 6.33203125 31.53515625 C9.20351403 28.80661698 10.29459384 28.70102279 14 28 C15.16666667 26.08333333 15.16666667 26.08333333 16 24 C19 22 19 22 23 22 C24.35652897 25.73045466 24.02987333 26.93582766 22.3125 30.625 C19.33204677 35.27692362 16.66074164 36.82919265 11.375 38.25 C8.06251198 39.19410132 8.06251198 39.19410132 5.97265625 41.74609375 C5.3334615 43.89160853 5.3334615 43.89160853 5 47 C2.36 47 -0.28 47 -3 47 C-3.061875 46.21625 -3.12375 45.4325 -3.1875 44.625 C-3.455625 43.75875 -3.72375 42.8925 -4 42 C-6.15097933 40.81971716 -6.15097933 40.81971716 -9 40 C-14.77325097 37.63238395 -18.52937977 35.2585155 -22 30 C-23.4 24.8 -23.4 24.8 -22 22 C-16.50847458 22.61016949 -16.50847458 22.61016949 -14.125 24.4375 C-13 26 -13 26 -13 28 C-12.071875 28.28875 -11.14375 28.5775 -10.1875 28.875 C-7 30 -7 30 -4 32 C-3.95875 30.783125 -3.9175 29.56625 -3.875 28.3125 C-3.85179688 27.62800781 -3.82859375 26.94351563 -3.8046875 26.23828125 C-3.89395755 23.91610218 -3.89395755 23.91610218 -4.9921875 21.609375 C-6.16769744 18.56580664 -6.26645432 16.19134092 -6.25 12.9375 C-6.25515625 11.91527344 -6.2603125 10.89304687 -6.265625 9.83984375 C-5.99935141 6.99306579 -5.62134134 5.340136 -4 3 C-3.01 2.67 -2.02 2.34 -1 2 C-0.67 1.34 -0.34 0.68 0 0 Z " fill="#B9A932" transform="translate(40,16)"/>
<path d="M0 0 C7.06526183 0.33644104 12.26168039 1.73487217 18 6 C21 9.90909091 21 9.90909091 21 13 C22.32 13 23.64 13 25 13 C25.33 12.34 25.66 11.68 26 11 C25.01 10.67 24.02 10.34 23 10 C22.67 8.02 22.34 6.04 22 4 C26.60513761 4.7882668 29.1841094 7.12633215 32.33984375 10.453125 C35.57609322 15.41791241 34.94380571 20.34317722 34 26 C32.66858115 31.44558962 30.89488015 36.72817272 29 42 C28.67 42 28.34 42 28 42 C27.78721942 37.53160785 28.40861915 34.17737474 30 30 C28.35 30 26.7 30 25 30 C24.67 30.99 24.34 31.98 24 33 C23.67 31.68 23.34 30.36 23 29 C22.67 29.66 22.34 30.32 22 31 C21.34 30.67 20.68 30.34 20 30 C20.33 27.36 20.66 24.72 21 22 C15.68588506 23.92391649 15.68588506 23.92391649 12 28 C6.66666667 31 6.66666667 31 4 31 C3.34 32.32 2.68 33.64 2 35 C0.70426471 30.72146069 1.504859 27.10595886 2.375 22.8125 C2.51421875 22.07580078 2.6534375 21.33910156 2.796875 20.58007812 C3.85734821 15.14265179 3.85734821 15.14265179 5 14 C5.04092937 11.66702567 5.04241723 9.33294775 5 7 C4.34 7 3.68 7 3 7 C3 5.68 3 4.36 3 3 C2.01 3.33 1.02 3.66 0 4 C0 2.68 0 1.36 0 0 Z " fill="#178044" transform="translate(42,16)"/>
<path d="M0 0 C8.2920199 4.85527173 15.29312211 10.96199039 22.3359375 17.45703125 C24.54871601 19.50624231 24.54871601 19.50624231 27.5 21.375 C28.88575569 32.8569757 24.37262609 46.05359272 19.5 56.375 C19.0771875 57.42042969 18.654375 58.46585938 18.21875 59.54296875 C15.94984203 64.38755031 14.26035819 67.60550211 9.23828125 69.80078125 C5.32064026 70.66454536 1.49624356 71.15686443 -2.5 71.375 C-3.77101562 71.44847656 -5.04203125 71.52195312 -6.3515625 71.59765625 C-15.45040333 71.81429532 -27.3909509 72.07320521 -35.5 67.375 C-37.09543361 64.9387699 -38.3400078 62.73675704 -39.5625 60.125 C-39.90611572 59.41424316 -40.24973145 58.70348633 -40.60375977 57.97119141 C-44.5891967 49.45947058 -47.07231809 40.66745591 -48.5 31.375 C-48.64824219 30.57578125 -48.79648437 29.7765625 -48.94921875 28.953125 C-49.36979739 24.84386483 -49.14785666 22.31257234 -46.76171875 18.859375 C-34.7814936 6.38896061 -17.40356257 -8.98014146 0 0 Z M-37.5 13.375 C-38.64368902 14.29434064 -39.78921761 15.21140306 -40.9375 16.125 C-45.12130565 19.79559301 -45.12130565 19.79559301 -46.93359375 24.8984375 C-46.9509293 37.55339041 -42.76525655 48.99581069 -37.5 60.375 C-36.7575 62.1384375 -36.7575 62.1384375 -36 63.9375 C-29.83433865 69.94901982 -19.77067483 69.6760368 -11.5625 69.75 C-9.26468009 69.70277955 -6.97558736 69.61491967 -4.68066406 69.49072266 C-2.64047893 69.38245488 -0.59730189 69.33543895 1.4453125 69.29296875 C5.99685396 68.84567904 9.73830457 68.36541537 12.90283203 64.79003906 C16.21084821 60.00975375 18.44006658 54.78781641 20.5 49.375 C20.74991699 48.72934082 20.99983398 48.08368164 21.25732422 47.41845703 C22.7288611 43.45646351 23.72718185 39.52585973 24.5 35.375 C24.82291016 33.72371094 24.82291016 33.72371094 25.15234375 32.0390625 C25.71145687 26.74947546 25.37841409 23.64104165 22.3046875 19.2109375 C15.61217782 11.7454043 7.14306096 6.3007255 -1.5 1.375 C-2.34046875 0.80652344 -3.1809375 0.23804688 -4.046875 -0.34765625 C-15.27319559 -6.80844142 -29.44563279 6.2411319 -37.5 13.375 Z " fill="#BBD421" transform="translate(51.5,6.625)"/>
<path d="M0 0 C1.8871875 0.0309375 1.8871875 0.0309375 3.8125 0.0625 C3.8125 1.0525 3.8125 2.0425 3.8125 3.0625 C2.8225 3.0625 1.8325 3.0625 0.8125 3.0625 C-0.19199785 6.41350483 -0.35298829 9.50894298 -0.375 13 C-0.39626953 14.52947266 -0.39626953 14.52947266 -0.41796875 16.08984375 C-0.17986139 19.16102513 0.65049369 21.23722974 1.8125 24.0625 C2.0078125 26.51953125 2.0078125 26.51953125 1.9375 28.875 C1.91945313 29.66519531 1.90140625 30.45539062 1.8828125 31.26953125 C1.85960938 31.86121094 1.83640625 32.45289063 1.8125 33.0625 C-7.44725516 28.83717483 -7.44725516 28.83717483 -10.875 25.25 C-13.12189689 22.66771844 -13.12189689 22.66771844 -17 22.75 C-18.5778125 22.9046875 -18.5778125 22.9046875 -20.1875 23.0625 C-20.1875 22.4025 -20.1875 21.7425 -20.1875 21.0625 C-21.1775 20.7325 -22.1675 20.4025 -23.1875 20.0625 C-22.1975 19.1653125 -22.1975 19.1653125 -21.1875 18.25 C-18.8501154 16.18748166 -18.8501154 16.18748166 -19.1875 13.0625 C-17.86962715 12.04221135 -16.53539347 11.04278616 -15.1875 10.0625 C-14.8575 9.0725 -14.5275 8.0825 -14.1875 7.0625 C-9.79960571 2.67460571 -6.3449071 -0.10401487 0 0 Z " fill="#137F46" transform="translate(35.1875,15.9375)"/>
<path d="M0 0 C5.95354745 3.37925585 11.46042296 6.8342744 16 12 C15.34 12 14.68 12 14 12 C14 12.66 14 13.32 14 14 C14.66 14.33 15.32 14.66 16 15 C16 15.99 16 16.98 16 18 C16.66 18.33 17.32 18.66 18 19 C17.34 20.32 16.68 21.64 16 23 C15.505 22.01 15.505 22.01 15 21 C14.34 21 13.68 21 13 21 C10.70351351 18.4385343 10 17.52032428 10 14 C8.3369416 13.32438252 6.66905395 12.66066719 5 12 C4.05833984 11.60361328 4.05833984 11.60361328 3.09765625 11.19921875 C-1.08611968 9.50482965 -4.40536582 8.56241579 -9 9 C-9.99 9.495 -9.99 9.495 -11 10 C-11 9.34 -11 8.68 -11 8 C-12.258125 8.144375 -13.51625 8.28875 -14.8125 8.4375 C-15.87404297 8.55931641 -15.87404297 8.55931641 -16.95703125 8.68359375 C-20.08031494 9.16731455 -21.74396526 9.74396526 -24 12 C-24.66 10.68 -25.32 9.36 -26 8 C-25.34 8 -24.68 8 -24 8 C-24.83333333 5.83333333 -24.83333333 5.83333333 -27 5 C-25.10673459 3.87068379 -23.2102736 2.74672384 -21.3125 1.625 C-20.25675781 0.99851562 -19.20101563 0.37203125 -18.11328125 -0.2734375 C-10.50022897 -4.49548155 -7.64229949 -3.89141134 0 0 Z " fill="#1D8348" transform="translate(50,8)"/>
<path d="M0 0 C2.375 -0.1875 2.375 -0.1875 5 0 C5.66 0.99 6.32 1.98 7 3 C6.34 3.66 5.68 4.32 5 5 C5.66 5.33 6.32 5.66 7 6 C7.6328125 8.06640625 7.6328125 8.06640625 8.125 10.5625 C8.29257812 11.38878906 8.46015625 12.21507812 8.6328125 13.06640625 C8.75398438 13.70449219 8.87515625 14.34257813 9 15 C10.32 15.33 11.64 15.66 13 16 C13 16.66 13 17.32 13 18 C13.928125 18.268125 14.85625 18.53625 15.8125 18.8125 C18.86419067 19.94940437 19.8499752 20.74759307 22 23 C22.99 23 23.98 23 25 23 C27.33333333 23 29.66666667 23 32 23 C32 24.32 32 25.64 32 27 C32.66 27 33.32 27 34 27 C34.495 25.515 34.495 25.515 35 24 C35 25.32 35 26.64 35 28 C36.65 28.33 38.3 28.66 40 29 C40 29.33 40 29.66 40 30 C16.05528658 30.72559738 16.05528658 30.72559738 9 27 C5.81539719 23.3280145 3.89201803 19.45247356 2 15 C1.63132812 14.23429687 1.26265625 13.46859375 0.8828125 12.6796875 C-1.19077234 8.00035888 -1.10657059 4.82867165 0 0 Z " fill="#429144" transform="translate(9,46)"/>
<path d="M0 0 C0.94875 0.04125 1.8975 0.0825 2.875 0.125 C3.205 1.115 3.535 2.105 3.875 3.125 C2.885 3.125 1.895 3.125 0.875 3.125 C0.875 2.465 0.875 1.805 0.875 1.125 C-0.115 1.62 -0.115 1.62 -1.125 2.125 C-1.125 3.775 -1.125 5.425 -1.125 7.125 C-0.465 7.455 0.195 7.785 0.875 8.125 C0.875 7.135 0.875 6.145 0.875 5.125 C0.215 4.795 -0.445 4.465 -1.125 4.125 C-0.361875 4.2075 0.40125 4.29 1.1875 4.375 C2.5178125 4.25125 2.5178125 4.25125 3.875 4.125 C5.51176257 2.1649719 5.51176257 2.1649719 6.875 0.125 C7.865 0.125 8.855 0.125 9.875 0.125 C10.205 1.115 10.535 2.105 10.875 3.125 C11.205 2.135 11.535 1.145 11.875 0.125 C12.865 0.125 13.855 0.125 14.875 0.125 C14.875 1.445 14.875 2.765 14.875 4.125 C15.865 4.125 16.855 4.125 17.875 4.125 C17.875 2.805 17.875 1.485 17.875 0.125 C18.535 0.125 19.195 0.125 19.875 0.125 C20.205 2.105 20.535 4.085 20.875 6.125 C21.535 4.145 22.195 2.165 22.875 0.125 C29.5 -0.125 29.5 -0.125 32.875 2.125 C32.875 1.465 32.875 0.805 32.875 0.125 C34.855 0.125 36.835 0.125 38.875 0.125 C38.875 2.765 38.875 5.405 38.875 8.125 C39.535 8.125 40.195 8.125 40.875 8.125 C41.205 5.485 41.535 2.845 41.875 0.125 C42.535 0.125 43.195 0.125 43.875 0.125 C43.97265625 6.27734375 43.97265625 6.27734375 43.875 8.125 C42.875 9.125 42.875 9.125 39.8125 9.1875 C38.843125 9.166875 37.87375 9.14625 36.875 9.125 C36.215 7.145 35.555 5.165 34.875 3.125 C34.215 5.105 33.555 7.085 32.875 9.125 C30.895 9.125 28.915 9.125 26.875 9.125 C26.545 8.135 26.215 7.145 25.875 6.125 C25.215 6.125 24.555 6.125 23.875 6.125 C23.545 7.115 23.215 8.105 22.875 9.125 C21.225 9.125 19.575 9.125 17.875 9.125 C17.875 7.805 17.875 6.485 17.875 5.125 C16.885 5.125 15.895 5.125 14.875 5.125 C14.875 6.445 14.875 7.765 14.875 9.125 C13.225 9.125 11.575 9.125 9.875 9.125 C9.545 8.135 9.215 7.145 8.875 6.125 C8.215 6.125 7.555 6.125 6.875 6.125 C6.545 7.115 6.215 8.105 5.875 9.125 C4.41707116 9.17899736 2.95857288 9.21779177 1.5 9.25 C0.68789062 9.27320313 -0.12421875 9.29640625 -0.9609375 9.3203125 C-3.125 9.125 -3.125 9.125 -5.125 7.125 C-5.375 4.625 -5.375 4.625 -5.125 2.125 C-3.125 0.125 -3.125 0.125 0 0 Z M26.875 1.125 C27.535 3.435 28.195 5.745 28.875 8.125 C29.64742269 6.28799211 29.64742269 6.28799211 29.875 4.125 C28.52055699 2.35309091 28.52055699 2.35309091 26.875 1.125 Z " fill="#FFFFFF" transform="translate(126.125,48.875)"/>
<path d="M0 0 C1.98 0 3.96 0 6 0 C6.20496094 0.71027344 6.40992188 1.42054687 6.62109375 2.15234375 C6.89050781 3.07144531 7.15992188 3.99054687 7.4375 4.9375 C7.83775391 6.31228516 7.83775391 6.31228516 8.24609375 7.71484375 C8.79026051 9.9402493 8.79026051 9.9402493 10 11 C11.32 7.37 12.64 3.74 14 0 C15.65 0 17.3 0 19 0 C19 6.27 19 12.54 19 19 C17.68 19 16.36 19 15 19 C14.67 17.02 14.34 15.04 14 13 C13.34 14.98 12.68 16.96 12 19 C10.35 19 8.7 19 7 19 C6.34 17.02 5.68 15.04 5 13 C4.67 14.98 4.34 16.96 4 19 C2.68 19 1.36 19 0 19 C0 12.73 0 6.46 0 0 Z " fill="#FFFFFF" transform="translate(143,15)"/>
<path d="M0 0 C1.65 0 3.3 0 5 0 C5.47985967 1.27057182 5.9588593 2.54146848 6.4375 3.8125 C6.83775391 4.87404297 6.83775391 4.87404297 7.24609375 5.95703125 C7.86225186 7.62672396 8.43719235 9.31157704 9 11 C10.65 7.37 12.3 3.74 14 0 C15.65 0 17.3 0 19 0 C19 6.27 19 12.54 19 19 C17.68 19 16.36 19 15 19 C14.67 16.69 14.34 14.38 14 12 C13.01 14.31 12.02 16.62 11 19 C9.68 19 8.36 19 7 19 C6.34 17.35 5.68 15.7 5 14 C4.67 15.65 4.34 17.3 4 19 C2.68 19 1.36 19 0 19 C0 12.73 0 6.46 0 0 Z " fill="#FFFFFF" transform="translate(237,15)"/>
<path d="M0 0 C5.49152542 0.61016949 5.49152542 0.61016949 7.875 2.4375 C9 4 9 4 9 6 C9.9075 6.2475 10.815 6.495 11.75 6.75 C15.76460492 8.29407882 17.90869159 10.12804762 20.0703125 13.8359375 C21.09008542 16.20969462 21.39851221 18.18313834 21.625 20.75 C21.69976562 21.54921875 21.77453125 22.3484375 21.8515625 23.171875 C21.90054688 23.77515625 21.94953125 24.3784375 22 25 C21.01 25 20.02 25 19 25 C18.938125 24.21625 18.87625 23.4325 18.8125 22.625 C18.544375 21.75875 18.27625 20.8925 18 20 C15.84902067 18.81971716 15.84902067 18.81971716 13 18 C7.22674903 15.63238395 3.47062023 13.2585155 0 8 C-1.4 2.8 -1.4 2.8 0 0 Z " fill="#CFDB18" transform="translate(18,38)"/>
<path d="M0 0 C1.35652897 3.73045466 1.02987333 4.93582766 -0.6875 8.625 C-3.66795323 13.27692362 -6.33925836 14.82919265 -11.625 16.25 C-14.93748802 17.19410132 -14.93748802 17.19410132 -17.02734375 19.74609375 C-17.6665385 21.89160853 -17.6665385 21.89160853 -18 25 C-18.99 25 -19.98 25 -21 25 C-20.80812854 14.06332703 -20.80812854 14.06332703 -17.625 9.875 C-12.2 6 -12.2 6 -9 6 C-8.731875 5.38125 -8.46375 4.7625 -8.1875 4.125 C-6.04539468 0.2917589 -4.29196451 0 0 0 Z " fill="#F1EB09" transform="translate(63,38)"/>
<path d="M0 0 C5 1 5 1 6.80078125 3.06640625 C7.29964844 3.89011719 7.79851562 4.71382812 8.3125 5.5625 C8.82425781 6.38878906 9.33601563 7.21507812 9.86328125 8.06640625 C10.23839844 8.70449219 10.61351562 9.34257812 11 10 C11.33 6.7 11.66 3.4 12 0 C13.32 0 14.64 0 16 0 C16 6.27 16 12.54 16 19 C14.35 19 12.7 19 11 19 C8.98046875 16.59375 8.98046875 16.59375 7.1875 13.5 C6.58292969 12.4790625 5.97835938 11.458125 5.35546875 10.40625 C4.90816406 9.6121875 4.46085937 8.818125 4 8 C3.67 11.63 3.34 15.26 3 19 C2.01 19 1.02 19 0 19 C0 12.73 0 6.46 0 0 Z " fill="#FFFFFF" transform="translate(373,15)"/>
<path d="M0 0 C13.75 -0.125 13.75 -0.125 16 1 C16.8125 3.25 16.8125 3.25 17 6 C16.443125 6.763125 15.88625 7.52625 15.3125 8.3125 C13.68331001 10.8564336 13.68331001 10.8564336 14.6875 13.09375 C15.7153286 15.12085641 16.79869141 17.07120572 18 19 C15.6953125 19.24609375 15.6953125 19.24609375 13 19 C11.3046875 17.28515625 11.3046875 17.28515625 9.875 15.0625 C7.71574792 11.60901189 7.71574792 11.60901189 4 10 C4 12.97 4 15.94 4 19 C2.68 19 1.36 19 0 19 C0 12.73 0 6.46 0 0 Z M4 2 C4 3.98 4 5.96 4 8 C6.64 7.67 9.28 7.34 12 7 C12 5.68 12 4.36 12 3 C9.29120665 1.64560332 6.99066732 1.93498549 4 2 Z " fill="#FFFFFF" transform="translate(182,15)"/>
<path d="M0 0 C0.33 0 0.66 0 1 0 C1.15855469 0.969375 1.31710938 1.93875 1.48046875 2.9375 C3.18730454 12.92569677 5.52795288 22.4743837 9 32 C9.39574219 33.1034375 9.79148437 34.206875 10.19921875 35.34375 C12.03068481 39.52367255 13.49269939 42.23743076 17.640625 44.3359375 C30.20856797 47.77791183 47.77672156 47.87475986 60 43 C61.42451058 41.01105304 61.42451058 41.01105304 62 39 C62.66 39 63.32 39 64 39 C62.52262364 44.66327604 62.52262364 44.66327604 60.25390625 46.125 C46.40720161 51.50049712 29.49242522 49.71420506 15.38671875 46.3828125 C11.87220018 44.34657752 10.60092832 41.30378189 8.9375 37.75 C8.59388428 37.03924316 8.25026855 36.32848633 7.89624023 35.59619141 C3.32250964 25.8280484 -0.22731984 15.0031094 -0.0625 4.125 C-0.05347656 3.34382813 -0.04445312 2.56265625 -0.03515625 1.7578125 C-0.02355469 1.17773438 -0.01195312 0.59765625 0 0 Z " fill="#C8DA1B" transform="translate(3,29)"/>
<path d="M0 0 C1.32 0 2.64 0 4 0 C4 0.99 4 1.98 4 3 C4.66 3 5.32 3 6 3 C6 2.01 6 1.02 6 0 C7.32 0 8.64 0 10 0 C10.33 0.99 10.66 1.98 11 3 C11.66 2.01 12.32 1.02 13 0 C13.99 0 14.98 0 16 0 C16.33 0.99 16.66 1.98 17 3 C17.33 2.01 17.66 1.02 18 0 C20.64 0 23.28 0 26 0 C25.979375 0.928125 25.95875 1.85625 25.9375 2.8125 C25.84230396 6.02286011 25.84230396 6.02286011 27 9 C25.0625 8.625 25.0625 8.625 23 8 C22.67 7.34 22.34 6.68 22 6 C21.67 6.99 21.34 7.98 21 9 C19.35 9 17.7 9 16 9 C15.67 8.01 15.34 7.02 15 6 C14.34 6 13.68 6 13 6 C12.67 6.99 12.34 7.98 12 9 C8.04 9 4.08 9 0 9 C0 6.03 0 3.06 0 0 Z M21 1 C21 1.99 21 2.98 21 4 C21.99 3.67 22.98 3.34 24 3 C23.67 2.34 23.34 1.68 23 1 C22.34 1 21.68 1 21 1 Z " fill="#FFFFFF" transform="translate(94,49)"/>
<path d="M0 0 C0.78246094 -0.02578125 1.56492187 -0.0515625 2.37109375 -0.078125 C4.5625 0.25 4.5625 0.25 6.34765625 1.578125 C7.5625 3.25 7.5625 3.25 7.5625 6.25 C6.2425 6.25 4.9225 6.25 3.5625 6.25 C3.2325 5.59 2.9025 4.93 2.5625 4.25 C0.9125 4.25 -0.7375 4.25 -2.4375 4.25 C-2.4375 4.91 -2.4375 5.57 -2.4375 6.25 C-1.81101562 6.43175781 -1.18453125 6.61351562 -0.5390625 6.80078125 C0.68683594 7.17783203 0.68683594 7.17783203 1.9375 7.5625 C2.74960937 7.80613281 3.56171875 8.04976562 4.3984375 8.30078125 C6.5625 9.25 6.5625 9.25 8.5625 12.25 C8.2383631 15.57240324 7.95473697 16.85776303 5.5625 19.25 C3.06640625 19.5859375 3.06640625 19.5859375 0.125 19.625 C-1.32712891 19.66753906 -1.32712891 19.66753906 -2.80859375 19.7109375 C-5.4375 19.25 -5.4375 19.25 -7.28515625 17.3515625 C-8.4375 15.25 -8.4375 15.25 -8.4375 13.25 C-3.5625 14.125 -3.5625 14.125 -2.4375 15.25 C-0.77132885 15.29063832 0.89638095 15.292721 2.5625 15.25 C2.5625 14.26 2.5625 13.27 2.5625 12.25 C1.92441406 12.04503906 1.28632813 11.84007812 0.62890625 11.62890625 C-0.19738281 11.35949219 -1.02367187 11.09007812 -1.875 10.8125 C-2.69871094 10.54566406 -3.52242188 10.27882813 -4.37109375 10.00390625 C-6.4375 9.25 -6.4375 9.25 -7.4375 8.25 C-7.125 4.75 -7.125 4.75 -6.4375 1.25 C-4.11063547 0.08656773 -2.59028587 0.05104012 0 0 Z " fill="#FFFFFF" transform="translate(345.4375,14.75)"/>
<path d="M0 0 C1.32 0 2.64 0 4 0 C4.33 1.98 4.66 3.96 5 6 C5.86625 5.01 6.7325 4.02 7.625 3 C10.12345413 0.46585366 10.66854671 0.03682814 14.375 -0.375 C15.24125 -0.25125 16.1075 -0.1275 17 0 C16.21625 0.763125 15.4325 1.52625 14.625 2.3125 C11.92742283 4.90891805 11.92742283 4.90891805 10 8 C10.5053125 8.71027344 11.010625 9.42054687 11.53125 10.15234375 C12.1809375 11.07144531 12.830625 11.99054687 13.5 12.9375 C14.1496875 13.85402344 14.799375 14.77054688 15.46875 15.71484375 C17 18 17 18 17 19 C14.8125 19.4375 14.8125 19.4375 12 19 C10.47979057 17.27680806 9.30795312 15.49253541 8.11328125 13.53125 C7.56220703 12.77328125 7.56220703 12.77328125 7 12 C6.34 12 5.68 12 5 12 C4.67 14.31 4.34 16.62 4 19 C2.68 19 1.36 19 0 19 C0 12.73 0 6.46 0 0 Z " fill="#FFFFFF" transform="translate(111,15)"/>
<path d="M0 0 C1.32 0 2.64 0 4 0 C4 2.64 4 5.28 4 8 C6.64 8 9.28 8 12 8 C12 5.36 12 2.72 12 0 C13.32 0 14.64 0 16 0 C16 6.27 16 12.54 16 19 C14.68 19 13.36 19 12 19 C12 16.36 12 13.72 12 11 C9.36 11 6.72 11 4 11 C4 13.64 4 16.28 4 19 C2.68 19 1.36 19 0 19 C0 12.73 0 6.46 0 0 Z " fill="#FFFFFF" transform="translate(409,15)"/>
<path d="M0 0 C1.32 0 2.64 0 4 0 C4 2.64 4 5.28 4 8 C6.64 8 9.28 8 12 8 C12 5.36 12 2.72 12 0 C13.32 0 14.64 0 16 0 C16 6.27 16 12.54 16 19 C14.68 19 13.36 19 12 19 C12 16.36 12 13.72 12 11 C9.36 11 6.72 11 4 11 C4 13.64 4 16.28 4 19 C2.68 19 1.36 19 0 19 C0 12.73 0 6.46 0 0 Z " fill="#FFFFFF" transform="translate(302,15)"/>
<path d="M0 0 C1.32 0 2.64 0 4 0 C4 2.64 4 5.28 4 8 C6.64 8 9.28 8 12 8 C12 5.36 12 2.72 12 0 C13.32 0 14.64 0 16 0 C16 6.27 16 12.54 16 19 C14.68 19 13.36 19 12 19 C12 16.36 12 13.72 12 11 C9.36 11 6.72 11 4 11 C4 13.64 4 16.28 4 19 C2.68 19 1.36 19 0 19 C0 12.73 0 6.46 0 0 Z " fill="#FFFFFF" transform="translate(276,15)"/>
<path d="M0 0 C1.32 0 2.64 0 4 0 C4 2.64 4 5.28 4 8 C6.64 8 9.28 8 12 8 C12 5.36 12 2.72 12 0 C13.32 0 14.64 0 16 0 C16 6.27 16 12.54 16 19 C14.68 19 13.36 19 12 19 C12 16.36 12 13.72 12 11 C9.36 11 6.72 11 4 11 C4 13.64 4 16.28 4 19 C2.68 19 1.36 19 0 19 C0 12.73 0 6.46 0 0 Z " fill="#FFFFFF" transform="translate(201,15)"/>
<path d="M0 0 C2.375 -0.1875 2.375 -0.1875 5 0 C5.66 0.99 6.32 1.98 7 3 C6.34 3.66 5.68 4.32 5 5 C5.66 5.33 6.32 5.66 7 6 C7.6328125 8.06640625 7.6328125 8.06640625 8.125 10.5625 C8.29257812 11.38878906 8.46015625 12.21507812 8.6328125 13.06640625 C8.75398438 13.70449219 8.87515625 14.34257813 9 15 C10.32 15.33 11.64 15.66 13 16 C13 16.66 13 17.32 13 18 C13.928125 18.268125 14.85625 18.53625 15.8125 18.8125 C18.76366897 19.9119551 20.19132029 20.48794485 22 23 C22 23.99 22 24.98 22 26 C17.87248551 25.39301257 14.6678852 23.96189209 11 22 C11 21.34 11 20.68 11 20 C10.34 20 9.68 20 9 20 C9 19.34 9 18.68 9 18 C8.01 17.67 7.02 17.34 6 17 C6 16.34 6 15.68 6 15 C5.01 15 4.02 15 3 15 C-0.62632404 9.56051394 -1.27607312 6.50797293 0 0 Z " fill="#56A279" transform="translate(9,46)"/>
<path d="M0 0 C1.65 0 3.3 0 5 0 C5.79311367 1.72850345 6.5844259 3.45783354 7.375 5.1875 C7.81585938 6.15042969 8.25671875 7.11335938 8.7109375 8.10546875 C12 15.49090909 12 15.49090909 12 19 C10.35 18.67 8.7 18.34 7 18 C6.67 16.35 6.34 14.7 6 13 C3.05272465 13.10169161 3.05272465 13.10169161 0 14 C-1.45291273 16.46255685 -1.45291273 16.46255685 -2 19 C-3.32 19 -4.64 19 -6 19 C-5.39124245 14.39583374 -4.15277044 10.43516676 -2.4375 6.125 C-1.75494141 4.39636719 -1.75494141 4.39636719 -1.05859375 2.6328125 C-0.70925781 1.76398437 -0.35992187 0.89515625 0 0 Z M2 6 C1.67 7.65 1.34 9.3 1 11 C2.32 11 3.64 11 5 11 C4.34 9.35 3.68 7.7 3 6 C2.67 6 2.34 6 2 6 Z " fill="#FFFFFF" transform="translate(396,15)"/>
<path d="M0 0 C1.65 0 3.3 0 5 0 C5.79311367 1.72850345 6.5844259 3.45783354 7.375 5.1875 C7.81585938 6.15042969 8.25671875 7.11335938 8.7109375 8.10546875 C12 15.49090909 12 15.49090909 12 19 C10.35 18.67 8.7 18.34 7 18 C6.67 16.35 6.34 14.7 6 13 C3.05272465 13.10169161 3.05272465 13.10169161 0 14 C-1.45291273 16.46255685 -1.45291273 16.46255685 -2 19 C-3.32 19 -4.64 19 -6 19 C-5.39124245 14.39583374 -4.15277044 10.43516676 -2.4375 6.125 C-1.75494141 4.39636719 -1.75494141 4.39636719 -1.05859375 2.6328125 C-0.70925781 1.76398437 -0.35992187 0.89515625 0 0 Z M2 6 C1.67 7.65 1.34 9.3 1 11 C2.32 11 3.64 11 5 11 C4.34 9.35 3.68 7.7 3 6 C2.67 6 2.34 6 2 6 Z " fill="#FFFFFF" transform="translate(325,15)"/>
<path d="M0 0 C1.65 0 3.3 0 5 0 C5.79311367 1.72850345 6.5844259 3.45783354 7.375 5.1875 C7.81585938 6.15042969 8.25671875 7.11335938 8.7109375 8.10546875 C12 15.49090909 12 15.49090909 12 19 C10.35 18.67 8.7 18.34 7 18 C6.67 16.35 6.34 14.7 6 13 C3.05272465 13.10169161 3.05272465 13.10169161 0 14 C-1.45291273 16.46255685 -1.45291273 16.46255685 -2 19 C-3.32 19 -4.64 19 -6 19 C-5.39124245 14.39583374 -4.15277044 10.43516676 -2.4375 6.125 C-1.75494141 4.39636719 -1.75494141 4.39636719 -1.05859375 2.6328125 C-0.70925781 1.76398437 -0.35992187 0.89515625 0 0 Z M2 6 C1.67 7.65 1.34 9.3 1 11 C2.32 11 3.64 11 5 11 C4.34 9.35 3.68 7.7 3 6 C2.67 6 2.34 6 2 6 Z " fill="#FFFFFF" transform="translate(263,15)"/>
<path d="M0 0 C1.65 0 3.3 0 5 0 C5.79311367 1.72850345 6.5844259 3.45783354 7.375 5.1875 C7.81585938 6.15042969 8.25671875 7.11335938 8.7109375 8.10546875 C12 15.49090909 12 15.49090909 12 19 C10.35 18.67 8.7 18.34 7 18 C6.67 16.35 6.34 14.7 6 13 C3.05272465 13.10169161 3.05272465 13.10169161 0 14 C-1.45291273 16.46255685 -1.45291273 16.46255685 -2 19 C-3.32 19 -4.64 19 -6 19 C-5.39124245 14.39583374 -4.15277044 10.43516676 -2.4375 6.125 C-1.75494141 4.39636719 -1.75494141 4.39636719 -1.05859375 2.6328125 C-0.70925781 1.76398437 -0.35992187 0.89515625 0 0 Z M2 6 C1.67 7.65 1.34 9.3 1 11 C2.32 11 3.64 11 5 11 C4.34 9.35 3.68 7.7 3 6 C2.67 6 2.34 6 2 6 Z " fill="#FFFFFF" transform="translate(224,15)"/>
<path d="M0 0 C1.65 0 3.3 0 5 0 C5.79311367 1.72850345 6.5844259 3.45783354 7.375 5.1875 C7.81585938 6.15042969 8.25671875 7.11335938 8.7109375 8.10546875 C12 15.49090909 12 15.49090909 12 19 C10.35 18.67 8.7 18.34 7 18 C6.67 16.35 6.34 14.7 6 13 C3.05272465 13.10169161 3.05272465 13.10169161 0 14 C-1.45291273 16.46255685 -1.45291273 16.46255685 -2 19 C-3.32 19 -4.64 19 -6 19 C-5.39124245 14.39583374 -4.15277044 10.43516676 -2.4375 6.125 C-1.75494141 4.39636719 -1.75494141 4.39636719 -1.05859375 2.6328125 C-0.70925781 1.76398437 -0.35992187 0.89515625 0 0 Z M2 6 C1.67 7.65 1.34 9.3 1 11 C2.32 11 3.64 11 5 11 C4.34 9.35 3.68 7.7 3 6 C2.67 6 2.34 6 2 6 Z " fill="#FFFFFF" transform="translate(169,15)"/>
<path d="M0 0 C1.65 0 3.3 0 5 0 C6.17094005 2.7899439 7.33690927 5.58178597 8.5 8.375 C9.00080078 9.56609375 9.00080078 9.56609375 9.51171875 10.78125 C9.82753906 11.54179687 10.14335937 12.30234375 10.46875 13.0859375 C10.76201172 13.7876709 11.05527344 14.4894043 11.35742188 15.21240234 C12 17 12 17 12 19 C10.35 18.67 8.7 18.34 7 18 C6.67 16.35 6.34 14.7 6 13 C3.69 13 1.38 13 -1 13 C-1.33 14.98 -1.66 16.96 -2 19 C-3.65 19 -5.3 19 -7 19 C-6.02241999 16.20776841 -5.04301077 13.41620228 -4.0625 10.625 C-3.78470703 9.8309375 -3.50691406 9.036875 -3.22070312 8.21875 C-2.95322266 7.45820313 -2.68574219 6.69765625 -2.41015625 5.9140625 C-2.16402588 5.2123291 -1.91789551 4.5105957 -1.66430664 3.78759766 C-1 2 -1 2 0 0 Z M2 5 C1.34 6.98 0.68 8.96 0 11 C1.65 11 3.3 11 5 11 C4.34 9.02 3.68 7.04 3 5 C2.67 5 2.34 5 2 5 Z " fill="#FFFFFF" transform="translate(360,15)"/>
<path d="M0 0 C2.31 0 4.62 0 7 0 C7.33 1.65 7.66 3.3 8 5 C8.66 3.35 9.32 1.7 10 0 C11.9375 0.375 11.9375 0.375 14 1 C14.33 1.66 14.66 2.32 15 3 C15.33 2.01 15.66 1.02 16 0 C17.9375 0.375 17.9375 0.375 20 1 C20.33 1.66 20.66 2.32 21 3 C21.33 2.01 21.66 1.02 22 0 C22.66 0 23.32 0 24 0 C24 2.97 24 5.94 24 9 C23.01 9 22.02 9 21 9 C20.67 8.34 20.34 7.68 20 7 C19.67 7.66 19.34 8.32 19 9 C17.35 9 15.7 9 14 9 C13.67 8.01 13.34 7.02 13 6 C12.34 6 11.68 6 11 6 C10.67 6.99 10.34 7.98 10 9 C6.7 9 3.4 9 0 9 C0 6.03 0 3.06 0 0 Z M3 1 C3 1.99 3 2.98 3 4 C3.66 4 4.32 4 5 4 C5 3.01 5 2.02 5 1 C4.34 1 3.68 1 3 1 Z M3 5 C3 5.99 3 6.98 3 8 C3.66 8 4.32 8 5 8 C5 7.01 5 6.02 5 5 C4.34 5 3.68 5 3 5 Z " fill="#FFFFFF" transform="translate(208,49)"/>
<path d="M0 0 C1.051875 -0.02126953 1.051875 -0.02126953 2.125 -0.04296875 C4 0.1875 4 0.1875 6 2.1875 C6.5 5.4375 6.5 5.4375 6 9.1875 C4.20677356 11.58020621 2.29756154 13.22499952 0 15.1875 C2.97 15.6825 2.97 15.6825 6 16.1875 C6 17.1775 6 18.1675 6 19.1875 C1.71 19.1875 -2.58 19.1875 -7 19.1875 C-5.88888889 13.63194444 -5.88888889 13.63194444 -2.5 11.1875 C0.48550261 8.84034285 0.48550261 8.84034285 1.9375 5.3125 C1.958125 4.61125 1.97875 3.91 2 3.1875 C0.02463255 3.53536708 0.02463255 3.53536708 -2 4.1875 C-2.33 4.8475 -2.66 5.5075 -3 6.1875 C-4.32 6.1875 -5.64 6.1875 -7 6.1875 C-6.625 3.75 -6.625 3.75 -6 1.1875 C-3.77109005 0.07304502 -2.46944894 0.02269714 0 0 Z " fill="#FFFFFF" transform="translate(441,14.8125)"/>
<path d="M0 0 C1.32 0.33 2.64 0.66 4 1 C6.68149993 0.61432869 6.68149993 0.61432869 9 0 C7.515 1.485 7.515 1.485 6 3 C6.33 3.99 6.66 4.98 7 6 C7.66 6.33 8.32 6.66 9 7 C9.33 5.02 9.66 3.04 10 1 C11.32 0.67 12.64 0.34 14 0 C14.66 1.65 15.32 3.3 16 5 C16.33 3.35 16.66 1.7 17 0 C18.98 0 20.96 0 23 0 C23.91892116 3.67568464 23.95904856 5.16380575 23 9 C20.03 9 17.06 9 14 9 C14 8.01 14 7.02 14 6 C13.01 6 12.02 6 11 6 C11 6.99 11 7.98 11 9 C9.02 9 7.04 9 5 9 C4.67 8.34 4.34 7.68 4 7 C3.67 7.66 3.34 8.32 3 9 C2.01 9 1.02 9 0 9 C0 6.03 0 3.06 0 0 Z M19 1 C19 1.99 19 2.98 19 4 C19.66 4 20.32 4 21 4 C21 3.01 21 2.02 21 1 C20.34 1 19.68 1 19 1 Z M12 3 C13 5 13 5 13 5 Z M19 5 C19 5.99 19 6.98 19 8 C19.99 7.67 20.98 7.34 22 7 C21.67 6.34 21.34 5.68 21 5 C20.34 5 19.68 5 19 5 Z " fill="#FFFFFF" transform="translate(177,49)"/>
<path d="M0 0 C0 1.98 0 3.96 0 6 C0.66 6 1.32 6 2 6 C2.33 5.34 2.66 4.68 3 4 C3.66 4.66 4.32 5.32 5 6 C5.66 5.34 6.32 4.68 7 4 C7.66 4.33 8.32 4.66 9 5 C9 6.32 9 7.64 9 9 C6.69 9.66 4.38 10.32 2 11 C2 10.34 2 9.68 2 9 C0.741875 9.144375 -0.51625 9.28875 -1.8125 9.4375 C-2.87404297 9.55931641 -2.87404297 9.55931641 -3.95703125 9.68359375 C-7.08031494 10.16731455 -8.74396526 10.74396526 -11 13 C-11.66 11.68 -12.32 10.36 -13 9 C-12.34 9 -11.68 9 -11 9 C-11.83333333 6.83333333 -11.83333333 6.83333333 -14 6 C-12.42356682 4.98915735 -10.8385483 3.99169489 -9.25 3 C-8.36828125 2.443125 -7.4865625 1.88625 -6.578125 1.3125 C-4 0 -4 0 0 0 Z " fill="#338F58" transform="translate(37,7)"/>
<path d="M0 0 C0.33 0.99 0.66 1.98 1 3 C1.33 2.01 1.66 1.02 2 0 C2.66 0 3.32 0 4 0 C4 4 4 4 2.0625 6.0625 C1.381875 6.701875 0.70125 7.34125 0 8 C-0.33 8.99 -0.66 9.98 -1 11 C-1.99 11 -2.98 11 -4 11 C-4.24105469 11.60328125 -4.48210938 12.2065625 -4.73046875 12.828125 C-6.26703445 15.45683432 -7.6551676 16.30298202 -10.3125 17.75 C-11.07175781 18.17796875 -11.83101562 18.6059375 -12.61328125 19.046875 C-15.24874744 20.09933613 -17.18840289 20.17914601 -20 20 C-20 18.35 -20 16.7 -20 15 C-16.7 14.34 -13.4 13.68 -10 13 C-10 12.34 -10 11.68 -10 11 C-9.360625 10.87625 -8.72125 10.7525 -8.0625 10.625 C-7.381875 10.41875 -6.70125 10.2125 -6 10 C-5.67 9.34 -5.34 8.68 -5 8 C-4.67 8 -4.34 8 -4 8 C-3.71125 7.236875 -3.4225 6.47375 -3.125 5.6875 C-2 3 -2 3 0 0 Z " fill="#94C3AE" transform="translate(66,54)"/>
<path d="M0 0 C3 1 3 1 4 3 C4.99 2.67 5.98 2.34 7 2 C7.33 2.33 7.66 2.66 8 3 C9.1446875 3.1546875 9.1446875 3.1546875 10.3125 3.3125 C13.56042871 4.14336548 14.82991622 5.50842233 17 8 C16.34 8 15.68 8 15 8 C15 8.66 15 9.32 15 10 C15.66 10.33 16.32 10.66 17 11 C17 11.99 17 12.98 17 14 C17.66 14.33 18.32 14.66 19 15 C18.34 16.32 17.68 17.64 17 19 C16.67 18.34 16.34 17.68 16 17 C15.34 17 14.68 17 14 17 C11.70351351 14.4385343 11 13.52032428 11 10 C10.278125 9.731875 9.55625 9.46375 8.8125 9.1875 C6.02047083 8.00864324 3.57013814 6.59765344 1 5 C0.34 4.67 -0.32 4.34 -1 4 C-0.67 2.68 -0.34 1.36 0 0 Z " fill="#268650" transform="translate(49,12)"/>
<path d="M0 0 C2.3125 0.125 2.3125 0.125 5 1 C8.25908621 5.65583744 8.64465177 10.48597576 9 16 C8.01 16 7.02 16 6 16 C5.938125 15.21625 5.87625 14.4325 5.8125 13.625 C5.544375 12.75875 5.27625 11.8925 5 11 C2.76740335 9.77227173 2.76740335 9.77227173 0 9 C-3.25 7.5625 -3.25 7.5625 -6 6 C-6.33 5.01 -6.66 4.02 -7 3 C-3.535 2.505 -3.535 2.505 0 2 C0 1.34 0 0.68 0 0 Z " fill="#F2EB08" transform="translate(31,47)"/>
<path d="M0 0 C5.28 0 10.56 0 16 0 C16 0.99 16 1.98 16 3 C14.02 3 12.04 3 10 3 C10 8.28 10 13.56 10 19 C8.68 19 7.36 19 6 19 C6 13.72 6 8.44 6 3 C4.02 3 2.04 3 0 3 C0 2.01 0 1.02 0 0 Z " fill="#FFFFFF" transform="translate(94,15)"/>
<path d="M0 0 C0.66 0 1.32 0 2 0 C2.33 2.31 2.66 4.62 3 7 C3.33 7 3.66 7 4 7 C4.33 4.69 4.66 2.38 5 0 C7.875 -0.1875 7.875 -0.1875 11 0 C11.66 0.99 12.32 1.98 13 3 C13.33 2.01 13.66 1.02 14 0 C14.66 0 15.32 0 16 0 C16 2.97 16 5.94 16 9 C15.01 9 14.02 9 13 9 C12.67 8.34 12.34 7.68 12 7 C11.67 7.66 11.34 8.32 11 9 C10.360625 8.814375 9.72125 8.62875 9.0625 8.4375 C8.0415625 8.2209375 8.0415625 8.2209375 7 8 C6.67 8.33 6.34 8.66 6 9 C3.5 9.125 3.5 9.125 1 9 C0 8 0 8 -0.09765625 6.15234375 C-0.06510417 4.1015625 -0.03255208 2.05078125 0 0 Z " fill="#FFFFFF" transform="translate(242,49)"/>
<path d="M0 0 C0.33 0 0.66 0 1 0 C1.18175781 1.28132813 1.36351562 2.56265625 1.55078125 3.8828125 C2.88884886 13.13897588 4.34070101 22.25259583 6.546875 31.34765625 C7 34 7 34 6 37 C3.71844463 33.57766695 2.63299428 30.138017 1.4375 26.25 C1.21642578 25.5590625 0.99535156 24.868125 0.76757812 24.15625 C-0.59435192 19.77832382 -1.57217557 15.57127478 -2 11 C-1.67 10.67 -1.34 10.34 -1 10 C-0.76712992 8.31816052 -0.58735834 6.6287584 -0.4375 4.9375 C-0.35371094 4.01839844 -0.26992188 3.09929688 -0.18359375 2.15234375 C-0.12300781 1.44207031 -0.06242188 0.73179688 0 0 Z " fill="#1B793E" transform="translate(2,29)"/>
<path d="M0 0 C1.98 0.99 1.98 0.99 4 2 C4 2.66 4 3.32 4 4 C4.66 4.33 5.32 4.66 6 5 C6 5.66 6 6.32 6 7 C6.66 7 7.32 7 8 7 C9 8 10 9 11 10 C11.99 10.33 12.98 10.66 14 11 C14.33 11.66 14.66 12.32 15 13 C17.01669827 14.13350534 17.01669827 14.13350534 19 15 C8.97107646 15.62248491 8.97107646 15.62248491 5.5625 13.4375 C5.046875 12.633125 4.53125 11.82875 4 11 C3.44892578 10.16662109 3.44892578 10.16662109 2.88671875 9.31640625 C0.75253901 5.90611904 0 4.09161929 0 0 Z " fill="#198243" transform="translate(12,59)"/>
<path d="M0 0 C0.33 0.99 0.66 1.98 1 3 C3.01508358 3.73323796 3.01508358 3.73323796 5 4 C5 4.66 5 5.32 5 6 C5.928125 6.268125 6.85625 6.53625 7.8125 6.8125 C10.76366897 7.9119551 12.19132029 8.48794485 14 11 C14 11.99 14 12.98 14 14 C9.87248551 13.39301257 6.6678852 11.96189209 3 10 C3 9.34 3 8.68 3 8 C2.34 8 1.68 8 1 8 C1 7.34 1 6.68 1 6 C0.01 5.67 -0.98 5.34 -2 5 C-2.6875 2.9375 -2.6875 2.9375 -3 1 C-2.01 0.67 -1.02 0.34 0 0 Z " fill="#92C2AC" transform="translate(17,58)"/>
<path d="M0 0 C1.66666667 1.66666667 3.33333333 3.33333333 5 5 C5.54398437 5.41765625 6.08796875 5.8353125 6.6484375 6.265625 C8.70401957 8.90342396 8.36101743 11.1495112 8.3125 14.4375 C8.30863281 15.57058594 8.30476563 16.70367187 8.30078125 17.87109375 C8.01771236 20.81574545 7.53360955 22.51323073 6 25 C6 24.34 6 23.68 6 23 C5.34 23 4.68 23 4 23 C4.33 18.05 4.66 13.1 5 8 C4.01 7.67 3.02 7.34 2 7 C0.35179805 4.39757586 0 3.13751221 0 0 Z " fill="#118046" transform="translate(74,20)"/>
<path d="M0 0 C0.33 0.99 0.66 1.98 1 3 C0.34 3 -0.32 3 -1 3 C-1.0825 3.5775 -1.165 4.155 -1.25 4.75 C-2.20531013 7.6159304 -3.78469173 8.9990764 -6 11 C-6.99 10.34 -7.98 9.68 -9 9 C-9.99 9 -10.98 9 -12 9 C-12 8.01 -12 7.02 -12 6 C-11.01 6 -10.02 6 -9 6 C-8.731875 5.38125 -8.46375 4.7625 -8.1875 4.125 C-6.04539468 0.2917589 -4.29196451 0 0 0 Z " fill="#AEC81F" transform="translate(63,38)"/>
<path d="M0 0 C1.09916562 3.29749685 0.89023727 4.54881363 0.22265625 7.88671875 C0.03896484 8.82451172 -0.14472656 9.76230469 -0.33398438 10.72851562 C-0.53314453 11.70498047 -0.73230469 12.68144531 -0.9375 13.6875 C-1.13279297 14.67556641 -1.32808594 15.66363281 -1.52929688 16.68164062 C-2.01275776 19.12252852 -2.50323966 21.56179009 -3 24 C-3.66 24 -4.32 24 -5 24 C-5.33 24.66 -5.66 25.32 -6 26 C-5.67 21.71 -5.34 17.42 -5 13 C-5.99 12.67 -6.98 12.34 -8 12 C-7.01 12 -6.02 12 -5 12 C-5.33 11.01 -5.66 10.02 -6 9 C-5.38125 8.443125 -4.7625 7.88625 -4.125 7.3125 C-1.93893621 4.93354822 -1.01214301 3.03642904 0 0 Z " fill="#CF6C1F" transform="translate(46,28)"/>
<path d="M0 0 C0.45375 0.495 0.9075 0.99 1.375 1.5 C2.87635519 3.22609337 2.87635519 3.22609337 5 3 C5.33 5.31 5.66 7.62 6 10 C4.68 10.33 3.36 10.66 2 11 C1.67 13.31 1.34 15.62 1 18 C0.34 17.67 -0.32 17.34 -1 17 C-1.37890625 14.8203125 -1.37890625 14.8203125 -1.5625 12.125 C-1.77628346 9.13203161 -2.04428957 6.8671313 -3 4 C-2.01 4 -1.02 4 0 4 C0 2.68 0 1.36 0 0 Z " fill="#CD7D22" transform="translate(40,16)"/>
<path d="M0 0 C0.33 0.66 0.66 1.32 1 2 C1.66 2 2.32 2 3 2 C2.46572474 10.90458773 -0.15662371 21.09729818 -6 28 C-6.33 27.34 -6.66 26.68 -7 26 C-6.328125 24.1796875 -6.328125 24.1796875 -5.25 21.875 C-2.27526131 14.85131142 -1.22562322 7.48372966 0 0 Z " fill="#147441" transform="translate(77,41)"/>
<path d="M0 0 C0.99 0.66 1.98 1.32 3 2 C3.66 1.34 4.32 0.68 5 0 C5.66 0.33 6.32 0.66 7 1 C7 2.32 7 3.64 7 5 C4.69 5.66 2.38 6.32 0 7 C0 6.34 0 5.68 0 5 C-1.258125 5.165 -2.51625 5.33 -3.8125 5.5 C-6.26456585 5.82158241 -8.51650694 6 -11 6 C-10.67 4.68 -10.34 3.36 -10 2 C-9.01 2.33 -8.02 2.66 -7 3 C-6.34 2.34 -5.68 1.68 -5 1 C-2.375 1.375 -2.375 1.375 0 2 C0 1.34 0 0.68 0 0 Z " fill="#64A885" transform="translate(39,11)"/>
<path d="M0 0 C2.00720923 0.28674418 4.0085944 0.61866701 6 1 C2.26368357 3.39954544 -1.02795498 3.22993687 -5.390625 3.1953125 C-6.09523865 3.1924826 -6.79985229 3.18965271 -7.52581787 3.18673706 C-9.7673876 3.17557801 -12.00855186 3.15048193 -14.25 3.125 C-15.77343171 3.11496464 -17.29686971 3.10583976 -18.8203125 3.09765625 C-22.54700586 3.07565291 -26.27346333 3.04115272 -30 3 C-30 2.34 -30 1.68 -30 1 C-29.12674072 1.00523682 -28.25348145 1.01047363 -27.35375977 1.01586914 C-24.12410727 1.03287751 -20.89447755 1.04543369 -17.66479492 1.05493164 C-16.26504772 1.0599708 -14.8653058 1.06680216 -13.46557617 1.07543945 C-11.45754223 1.0875232 -9.44947043 1.09269807 -7.44140625 1.09765625 C-6.23170166 1.10289307 -5.02199707 1.10812988 -3.77563477 1.11352539 C-1.09187983 1.31775285 -1.09187983 1.31775285 0 0 Z " fill="#117741" transform="translate(56,77)"/>
<path d="M0 0 C2.33294775 -0.04241723 4.66702567 -0.04092937 7 0 C8 1 8 1 8.125 4.5 C8 8 8 8 7 9 C4.66702567 9.04092937 2.33294775 9.04241723 0 9 C0 6.03 0 3.06 0 0 Z M3 1 C3 3.31 3 5.62 3 8 C3.66 8 4.32 8 5 8 C6.00217064 4.41672247 6.00217064 4.41672247 5 1 C4.34 1 3.68 1 3 1 Z " fill="#FFFFFF" transform="translate(233,49)"/>
<path d="M0 0 C3 1 3 1 4 3 C4.99 2.67 5.98 2.34 7 2 C7.33 2.99 7.66 3.98 8 5 C8.99 5 9.98 5 11 5 C11 5.99 11 6.98 11 8 C11.99 8.33 12.98 8.66 14 9 C13.01 9.99 12.02 10.98 11 12 C11 11.34 11 10.68 11 10 C10.278125 9.731875 9.55625 9.46375 8.8125 9.1875 C6.02047083 8.00864324 3.57013814 6.59765344 1 5 C0.34 4.67 -0.32 4.34 -1 4 C-0.67 2.68 -0.34 1.36 0 0 Z " fill="#83BBA2" transform="translate(49,12)"/>
<path d="M0 0 C0.66 0.99 1.32 1.98 2 3 C0.35 2.67 -1.3 2.34 -3 2 C-3.33 3.32 -3.66 4.64 -4 6 C-3.34 6.33 -2.68 6.66 -2 7 C-1.67 6.34 -1.34 5.68 -1 5 C-1.66 4.67 -2.32 4.34 -3 4 C-1.35 4 0.3 4 2 4 C2 5.32 2 6.64 2 8 C-4.75 9.125 -4.75 9.125 -7 8 C-7 5.69 -7 3.38 -7 1 C-4.46578263 -0.26710868 -2.80561762 -0.28056176 0 0 Z " fill="#FFFFFF" transform="translate(266,49)"/>
<path d="M0 0 C0.33 0 0.66 0 1 0 C1 2.64 1 5.28 1 8 C1.66 8 2.32 8 3 8 C2.67 11.63 2.34 15.26 2 19 C1.34 19 0.68 19 0 19 C-3.7327483 7.34233993 -3.7327483 7.34233993 -1.6875 2.75 C-1.130625 1.8425 -0.57375 0.935 0 0 Z " fill="#DBA82B" transform="translate(40,44)"/>
<path d="M0 0 C2.875 0.3125 2.875 0.3125 6 1 C6.66 1.99 7.32 2.98 8 4 C7.34 5.32 6.68 6.64 6 8 C5.67 7.01 5.34 6.02 5 5 C5 6.32 5 7.64 5 9 C4.34 9 3.68 9 3 9 C2.67 8.34 2.34 7.68 2 7 C1.01 7.495 1.01 7.495 0 8 C-1.125 2.25 -1.125 2.25 0 0 Z " fill="#B9CF1F" transform="translate(18,38)"/>
<path d="M0 0 C2 2 2 2 2 5 C-1.13498292 6.85776765 -3.37471432 7.20140476 -7 7 C-7 5.35 -7 3.7 -7 2 C-4.69 1.34 -2.38 0.68 0 0 Z " fill="#80B99F" transform="translate(53,67)"/>
<path d="M0 0 C0.33 0 0.66 0 1 0 C1.66 6.27 2.32 12.54 3 19 C2.34 19.33 1.68 19.66 1 20 C1 19.34 1 18.68 1 18 C0.34 18 -0.32 18 -1 18 C-1.38063221 15.6739143 -1.71269945 13.33944736 -2 11 C-1.67 10.67 -1.34 10.34 -1 10 C-0.76712992 8.31816052 -0.58735834 6.6287584 -0.4375 4.9375 C-0.35371094 4.01839844 -0.26992188 3.09929688 -0.18359375 2.15234375 C-0.12300781 1.44207031 -0.06242188 0.73179688 0 0 Z " fill="#21883B" transform="translate(2,29)"/>
<path d="M0 0 C0.99967079 2.99901236 1.03325535 4.37730709 0.6875 7.4375 C0.60886719 8.19933594 0.53023437 8.96117187 0.44921875 9.74609375 C-0.02256311 12.11320797 -0.82834323 13.90058235 -2 16 C-4.49040942 13.50959058 -4.32391014 12.56845643 -4.375 9.125 C-4.32201165 5.45820608 -4.28105993 4.36889116 -2 1.375 C-1.34 0.92125 -0.68 0.4675 0 0 Z " fill="#959628" transform="translate(40,35)"/>
<path d="M0 0 C0.66 0 1.32 0 2 0 C3.125 7.75 3.125 7.75 2 10 C2.66 10 3.32 10 4 10 C4 11.65 4 13.3 4 15 C2.68 15 1.36 15 0 15 C0 10.05 0 5.1 0 0 Z " fill="#D3751F" transform="translate(35,24)"/>
<path d="M0 0 C0.99 0.99 1.98 1.98 3 3 C2.01 4.485 2.01 4.485 1 6 C0.34 6 -0.32 6 -1 6 C-1.0825 6.61875 -1.165 7.2375 -1.25 7.875 C-2 10 -2 10 -4.0625 11.25 C-4.701875 11.4975 -5.34125 11.745 -6 12 C-6.33 11.01 -6.66 10.02 -7 9 C-6 7 -6 7 -4 6 C-4 5.34 -4 4.68 -4 4 C-3.01 4 -2.02 4 -1 4 C-0.67 2.68 -0.34 1.36 0 0 Z " fill="#93C3AE" transform="translate(22,17)"/>
<path d="M0 0 C3.625 -0.1875 3.625 -0.1875 7 0 C7 1.32 7 2.64 7 4 C7.66 4 8.32 4 9 4 C9.33 3.01 9.66 2.02 10 1 C9.67 2.65 9.34 4.3 9 6 C8.4225 5.649375 7.845 5.29875 7.25 4.9375 C4.57291478 3.82204782 3.71439649 4.29951058 1 5 C0.01 4.34 -0.98 3.68 -2 3 C-1.34 2.01 -0.68 1.02 0 0 Z " fill="#8EC4AB" transform="translate(34,69)"/>
<path d="M0 0 C0.99 0.33 1.98 0.66 3 1 C2.52949219 1.38671875 2.05898437 1.7734375 1.57421875 2.171875 C-5.0228829 7.50326901 -5.0228829 7.50326901 -7.6875 15.25 C-7.790625 16.4875 -7.89375 17.725 -8 19 C-8.33 19 -8.66 19 -9 19 C-10.10951794 15.8538327 -10.54775233 13.31075081 -10 10 C-7.0782804 6.18010258 -3.671523 3.09079001 0 0 Z " fill="#B4D121" transform="translate(13,18)"/>
<path d="M0 0 C1.56073255 2.34109882 2.86373867 4.56333403 4.125 7.0625 C4.47820313 7.75472656 4.83140625 8.44695312 5.1953125 9.16015625 C6 11 6 11 6 13 C4.35 12.67 2.7 12.34 1 12 C0.36605303 7.95858806 -0.12404452 4.0934693 0 0 Z " fill="#258A38" transform="translate(8,58)"/>
<path d="M0 0 C3 1 3 1 4.1875 2.8125 C5 5 5 5 5 9 C3.35 9 1.7 9 0 9 C-0.87890625 2.84765625 -0.87890625 2.84765625 -1 1 C-0.67 0.67 -0.34 0.34 0 0 Z " fill="#5CA682" transform="translate(66,31)"/>
<path d="M0 0 C0.99 0 1.98 0 3 0 C1.86115832 3.85454107 0.87947313 7.12052687 -2 10 C-4.6875 10.75 -4.6875 10.75 -7 11 C-6.34 9.68 -5.68 8.36 -5 7 C-4.01 7 -3.02 7 -2 7 C-2.04125 6.21625 -2.0825 5.4325 -2.125 4.625 C-2 2 -2 2 0 0 Z " fill="#288854" transform="translate(67,58)"/>
<path d="M0 0 C1.1875 1.75 1.1875 1.75 1.1875 4.75 C-0.7925 5.41 -2.7725 6.07 -4.8125 6.75 C-5.4725 4.44 -6.1325 2.13 -6.8125 -0.25 C-2.30541785 -1.58994334 -2.30541785 -1.58994334 0 0 Z " fill="#70AF89" transform="translate(15.8125,54.25)"/>
<path d="M0 0 C1.98128482 3.26911995 2.17354387 5.41461582 1.75 9.1875 C1.66234375 10.06792969 1.5746875 10.94835938 1.484375 11.85546875 C1.32453125 12.56316406 1.1646875 13.27085938 1 14 C0.01 14.495 0.01 14.495 -1 15 C-1.02693575 12.87506859 -1.04636628 10.75004088 -1.0625 8.625 C-1.07410156 7.44164062 -1.08570312 6.25828125 -1.09765625 5.0390625 C-1 2 -1 2 0 0 Z " fill="#127442" transform="translate(1,25)"/>
<path d="M0 0 C0 0.99 0 1.98 0 3 C-0.66 3.66 -1.32 4.32 -2 5 C-4.00636471 4.70740515 -6.00714063 4.37366113 -8 4 C-8.99 4.495 -8.99 4.495 -10 5 C-11.67654729 4.72057545 -13.34608154 4.39171753 -15 4 C-15 3.67 -15 3.34 -15 3 C-7.575 1.515 -7.575 1.515 0 0 Z " fill="#288735" transform="translate(64,74)"/>
<path d="M0 0 C0.33 0.66 0.66 1.32 1 2 C1.66 2 2.32 2 3 2 C2.67 4.64 2.34 7.28 2 10 C1.34 10 0.68 10 0 10 C-0.66 10.66 -1.32 11.32 -2 12 C-1.33333333 8 -0.66666667 4 0 0 Z " fill="#25823A" transform="translate(77,41)"/>
<path d="M0 0 C6 6 6 6 6.09765625 8.06640625 C6.08605469 8.89011719 6.07445313 9.71382812 6.0625 10.5625 C6.05347656 11.38878906 6.04445313 12.21507812 6.03515625 13.06640625 C6.01775391 14.02353516 6.01775391 14.02353516 6 15 C5.67 15 5.34 15 5 15 C5 12.69 5 10.38 5 8 C4.01 7.67 3.02 7.34 2 7 C0.35179805 4.39757586 0 3.13751221 0 0 Z " fill="#146A39" transform="translate(74,20)"/>
<path d="M0 0 C0.66 0 1.32 0 2 0 C0.4169423 4.2742558 -2.50568404 6.26531794 -6 9 C-6.33 7.68 -6.66 6.36 -7 5 C-2.25 2 -2.25 2 0 2 C0 1.34 0 0.68 0 0 Z " fill="#1E853C" transform="translate(9,19)"/>
<path d="M0 0 C1.09898702 3.29696105 0.87124444 4.40494903 0.0625 7.6875 C-0.22947266 8.89986328 -0.22947266 8.89986328 -0.52734375 10.13671875 C-0.68332031 10.75160156 -0.83929688 11.36648437 -1 12 C-1.99 11.67 -2.98 11.34 -4 11 C-3.39301257 6.87248551 -1.96189209 3.6678852 0 0 Z " fill="#DB4520" transform="translate(46,28)"/>
<path d="M0 0 C3.3125 0.125 3.3125 0.125 7 1 C9 3.9375 9 3.9375 10 7 C9.67 7.66 9.34 8.32 9 9 C7.49704815 7.69088122 5.99770689 6.37761608 4.5 5.0625 C3.6646875 4.33160156 2.829375 3.60070312 1.96875 2.84765625 C1.3190625 2.23792969 0.669375 1.62820312 0 1 C0 0.67 0 0.34 0 0 Z " fill="#248937" transform="translate(66,17)"/>
<path d="M0 0 C1.32 0 2.64 0 4 0 C3.67 1.32 3.34 2.64 3 4 C0.36 4.66 -2.28 5.32 -5 6 C-4.67 4.35 -4.34 2.7 -4 1 C-3.01 1.33 -2.02 1.66 -1 2 C-0.67 1.34 -0.34 0.68 0 0 Z " fill="#9CCBB6" transform="translate(33,12)"/>
<path d="M0 0 C0.33 0 0.66 0 1 0 C1.22245393 1.60226955 1.42746669 3.20696767 1.625 4.8125 C1.74101563 5.70582031 1.85703125 6.59914063 1.9765625 7.51953125 C2 10 2 10 0 13 C-2.125 8.375 -2.125 8.375 -1 5 C-0.65179959 3.33637583 -0.31595508 1.67004829 0 0 Z " fill="#33852F" transform="translate(40,21)"/>
<path d="M0 0 C0.66 0.33 1.32 0.66 2 1 C-1.63 4.63 -5.26 8.26 -9 12 C-9.66 11.67 -10.32 11.34 -11 11 C-7.33333333 7.33333333 -3.66666667 3.66666667 0 0 Z " fill="#208339" transform="translate(17,17)"/>
<path d="M0 0 C0.66 0 1.32 0 2 0 C0.72278474 4.99275057 -1.17330957 7.57611908 -5 11 C-5.33 10.01 -5.66 9.02 -6 8 C-5.38125 7.79375 -4.7625 7.5875 -4.125 7.375 C-1.15346355 5.45224112 -0.86975341 3.33405473 0 0 Z " fill="#E1E615" transform="translate(62,41)"/>
<path d="M0 0 C-0.33 1.65 -0.66 3.3 -1 5 C-2.65 4.67 -4.3 4.34 -6 4 C-6.33 4.99 -6.66 5.98 -7 7 C-6.6875 4.625 -6.6875 4.625 -6 2 C-3 0 -3 0 0 0 Z " fill="#CADB1F" transform="translate(62,38)"/>
<path d="M0 0 C1.25 1.5625 1.25 1.5625 2 4 C0.93237266 6.57001015 -0.46544943 8.6530403 -2 11 C-2.66 10.67 -3.32 10.34 -4 10 C-2.8905928 6.51329166 -1.73662334 3.22515763 0 0 Z " fill="#AECD21" transform="translate(70,58)"/>
<path d="M0 0 C0.99 0.33 1.98 0.66 3 1 C3 1.66 3 2.32 3 3 C3.66 3.33 4.32 3.66 5 4 C4.34 5.32 3.68 6.64 3 8 C2.67 7.34 2.34 6.68 2 6 C1.34 6 0.68 6 0 6 C-0.38218767 4.34385343 -0.71395102 2.67542976 -1 1 C-0.67 0.67 -0.34 0.34 0 0 Z " fill="#8BBDA6" transform="translate(63,23)"/>
<path d="M0 0 C0.66 0 1.32 0 2 0 C2.33 2.31 2.66 4.62 3 7 C0.69 6.01 -1.62 5.02 -4 4 C-3.67 3.01 -3.34 2.02 -3 1 C-1.68 1.66 -0.36 2.32 1 3 C0.67 2.01 0.34 1.02 0 0 Z " fill="#AF9E2C" transform="translate(45,23)"/>
<path d="M0 0 C0.33 0.99 0.66 1.98 1 3 C1.33 2.01 1.66 1.02 2 0 C2.66 0 3.32 0 4 0 C4 1.32 4 2.64 4 4 C1.5 5.75 1.5 5.75 -1 7 C-1.625 5.1875 -1.625 5.1875 -2 3 C-1.34 2.01 -0.68 1.02 0 0 Z " fill="#9CCAB5" transform="translate(66,54)"/>
<path d="M0 0 C0.66 0 1.32 0 2 0 C1.34 1.98 0.68 3.96 0 6 C-1.65 6.33 -3.3 6.66 -5 7 C-4.34 5.68 -3.68 4.36 -3 3 C-2.34 3 -1.68 3 -1 3 C-0.67 2.01 -0.34 1.02 0 0 Z " fill="#136D41" transform="translate(68,71)"/>
<path d="M0 0 C3 1 3 1 4 3 C4.66 3 5.32 3 6 3 C5.67 4.32 5.34 5.64 5 7 C3 6 1 5 -1 4 C-0.67 2.68 -0.34 1.36 0 0 Z " fill="#8DC2A9" transform="translate(49,12)"/>
<path d="M0 0 C2 0 2 0 3.625 1.3125 C5 3 5 3 5 6 C3.35 5.67 1.7 5.34 0 5 C0 4.34 0 3.68 0 3 C-0.66 2.67 -1.32 2.34 -2 2 C-1.34 2 -0.68 2 0 2 C0 1.34 0 0.68 0 0 Z " fill="#9AC9B4" transform="translate(26,66)"/>
<path d="M0 0 C0.66 0.66 1.32 1.32 2 2 C1.625 4.625 1.625 4.625 1 7 C0.01 7 -0.98 7 -2 7 C-1.125 1.125 -1.125 1.125 0 0 Z " fill="#E0B026" transform="translate(43,27)"/>
<path d="M0 0 C2.72869407 0.03287583 5.2966618 0.56397771 8 1 C8 1.66 8 2.32 8 3 C4.7 2.67 1.4 2.34 -2 2 C-1.34 1.34 -0.68 0.68 0 0 Z " fill="#BDD51E" transform="translate(23,74)"/>
<path d="M0 0 C1.32 0 2.64 0 4 0 C4.33 1.65 4.66 3.3 5 5 C2.5625 4.625 2.5625 4.625 0 4 C-0.33 3.34 -0.66 2.68 -1 2 C-0.67 1.34 -0.34 0.68 0 0 Z " fill="#6EAE90" transform="translate(21,65)"/>
<path d="M0 0 C0.33 0 0.66 0 1 0 C1.33 4.29 1.66 8.58 2 13 C0.68 12.67 -0.64 12.34 -2 12 C-1.67 11.34 -1.34 10.68 -1 10 C-0.77377919 8.29636178 -0.59111527 6.58671299 -0.4375 4.875 C-0.35371094 3.96492188 -0.26992188 3.05484375 -0.18359375 2.1171875 C-0.12300781 1.41851563 -0.06242188 0.71984375 0 0 Z " fill="#43942E" transform="translate(2,29)"/>
<path d="M0 0 C1.32 0.66 2.64 1.32 4 2 C1.36 3.65 -1.28 5.3 -4 7 C-3.04065919 3.16263678 -2.76390737 2.40339772 0 0 Z " fill="#2B873A" transform="translate(19,10)"/>
<path d="M0 0 C2 3 2 3 1.625 6.1875 C1.41875 7.115625 1.2125 8.04375 1 9 C0.67 8.34 0.34 7.68 0 7 C-0.66 7 -1.32 7 -2 7 C-1.34 4.69 -0.68 2.38 0 0 Z " fill="#0C5C30" transform="translate(80,36)"/>
<path d="M0 0 C1.32 0.66 2.64 1.32 4 2 C1.23776722 4.76223278 -1.20706617 4.57856291 -5 5 C-4 3 -4 3 -1 2 C-0.67 1.34 -0.34 0.68 0 0 Z " fill="#19824F" transform="translate(56,69)"/>
<path d="M0 0 C1.98 0.99 1.98 0.99 4 2 C3.67 3.98 3.34 5.96 3 8 C0.37613513 4.93882432 0 4.26826873 0 0 Z " fill="#268643" transform="translate(12,59)"/>
<path d="M0 0 C0.99 0 1.98 0 3 0 C2.34 1.98 1.68 3.96 1 6 C0.01 6 -0.98 6 -2 6 C-2 2 -2 2 0 0 Z " fill="#3E8F5F" transform="translate(67,58)"/>
<path d="M0 0 C1.32 0 2.64 0 4 0 C4 0.99 4 1.98 4 3 C2.68 3 1.36 3 0 3 C0 2.01 0 1.02 0 0 Z " fill="#FFFFFF" transform="translate(129,31)"/>
<path d="M0 0 C0.66 0 1.32 0 2 0 C2 0.99 2 1.98 2 3 C1.34 3 0.68 3 0 3 C0 2.01 0 1.02 0 0 Z " fill="#FFFFFF" transform="translate(171,57)"/>
<path d="M0 0 C2 1 2 1 2 1 Z " fill="#FFFFFF" transform="translate(202,57)"/>
</svg>
